<?xml version="1.0" standalone="no"?>
<!DOCTYPE svg PUBLIC "-//W3C//DTD SVG 20010904//EN"
 "http://www.w3.org/TR/2001/REC-SVG-20010904/DTD/svg10.dtd">
<svg version="1.0" xmlns="http://www.w3.org/2000/svg"
 width="800.000000pt" height="800.000000pt" viewBox="0 0 800.000000 800.000000"
 preserveAspectRatio="xMidYMid meet">

<g transform="translate(0.000000,800.000000) scale(0.100000,-0.100000)"
fill="#000000" stroke="none">
<path d="M3730 7994 c-499 -45 -887 -139 -1305 -316 -900 -382 -1662 -1126
-2065 -2016 -199 -440 -311 -881 -351 -1377 -14 -181 -7 -555 15 -740 126
-1065 653 -2014 1490 -2683 500 -400 1143 -692 1766 -801 246 -44 345 -53 637
-58 379 -7 567 9 903 77 830 168 1618 626 2180 1266 240 274 407 520 570 839
168 329 283 661 355 1020 61 307 70 411 70 795 0 361 -8 461 -56 725 -244
1323 -1146 2442 -2390 2966 -335 141 -703 237 -1089 284 -129 16 -620 29 -730
19z m50 -2115 c0 -32 -4 -42 -20 -46 -18 -5 -20 -14 -20 -84 0 -87 17 -119 63
-119 51 0 62 21 62 117 0 71 -3 88 -15 88 -10 0 -16 13 -18 43 l-3 42 85 0 86
0 0 -50 c0 -38 -4 -50 -15 -50 -12 0 -15 -16 -15 -82 -1 -107 -22 -158 -79
-187 -55 -29 -140 -28 -191 0 -54 30 -69 67 -73 174 -3 86 -4 90 -27 95 -19 4
-26 13 -28 39 -6 59 -2 61 108 61 l100 0 0 -41z m523 -36 c54 -71 57 -74 57
-45 0 24 -5 31 -22 34 -19 2 -24 10 -26 46 l-3 42 95 0 96 0 0 -49 c0 -40 -3
-50 -20 -54 -19 -5 -20 -14 -20 -146 l0 -141 -59 0 -59 0 -71 95 c-39 52 -74
95 -76 95 -3 0 -5 -25 -5 -55 0 -52 1 -55 25 -55 23 0 25 -4 25 -40 l0 -40
-100 0 -100 0 0 65 c0 51 3 65 15 65 12 0 15 17 15 90 0 67 -3 89 -12 88 -9
-2 -14 12 -16 40 l-3 42 103 0 103 0 58 -77z m-917 -418 c109 -19 169 -38 254
-80 220 -110 358 -306 401 -570 23 -142 -17 -356 -96 -520 -78 -161 -177 -261
-330 -335 -228 -109 -564 -114 -789 -11 -218 100 -355 313 -403 626 -28 182
-3 344 73 481 169 306 529 471 890 409z m1674 3 c0 -7 -22 -80 -50 -163 l-49
-150 -47 -5 -48 -5 -103 -320 c-56 -176 -103 -333 -103 -348 0 -47 26 -94 62
-113 66 -34 193 -17 266 36 78 56 95 92 207 435 58 178 105 325 105 329 0 3
-27 6 -60 6 l-60 0 6 28 c4 15 26 83 49 152 l42 125 306 3 c232 2 307 -1 307
-10 0 -15 -99 -317 -111 -340 -8 -14 -23 -18 -67 -18 l-57 0 -110 -342 c-71
-220 -122 -363 -145 -402 -44 -76 -167 -206 -243 -258 -142 -97 -294 -146
-477 -155 -258 -13 -434 66 -508 225 -20 45 -27 77 -30 148 l-4 91 107 328
c59 181 109 335 112 342 4 10 -15 13 -90 13 l-95 0 60 182 c32 100 61 185 64
190 3 4 176 8 385 8 296 0 379 -3 379 -12z m-3297 -24 c162 -35 342 -151 439
-282 149 -202 184 -561 79 -814 -79 -188 -256 -340 -475 -407 -66 -20 -87 -21
-642 -21 l-574 0 0 195 0 195 75 0 75 0 0 380 0 380 -75 0 -75 0 0 195 0 195
551 0 c463 0 561 -2 622 -16z m5110 -56 c15 -40 112 -298 216 -573 l190 -500
60 -3 61 -3 0 -195 0 -194 -462 2 -463 3 0 200 0 200 73 3 c39 2 72 6 72 10 0
4 -11 25 -23 47 l-23 40 -141 3 -142 3 -10 -38 c-20 -78 -20 -78 27 -81 l42
-3 0 -195 0 -194 -360 0 -360 0 2 203 3 202 85 3 85 3 44 122 c24 67 115 321
203 565 l161 442 316 0 316 0 28 -72z m-4313 -1704 c0 -4 -34 -91 -76 -195
l-76 -189 -78 0 -77 0 -58 -157 c-79 -217 -209 -542 -245 -612 -79 -157 -240
-304 -401 -364 -126 -48 -318 -61 -452 -31 -161 36 -319 148 -378 269 -22 46
-24 62 -24 200 0 173 13 225 72 295 54 63 119 90 218 90 170 -1 265 -91 265
-255 0 -89 -15 -141 -45 -161 -31 -20 -32 -44 -3 -72 38 -34 71 -37 105 -8 32
27 33 30 113 261 93 267 326 910 336 927 6 9 804 11 804 2z m833 -6 c2 -7 98
-260 212 -563 115 -302 213 -556 218 -562 6 -8 33 -13 68 -13 l59 0 0 -195 0
-195 -462 2 -463 3 -3 202 -2 202 74 3 75 3 -27 42 -27 42 -141 1 -142 0 -15
-60 -15 -60 49 0 49 0 0 -190 0 -190 -365 0 -365 0 0 195 0 195 85 0 c70 0 86
3 94 18 5 9 48 127 96 262 47 135 120 337 160 450 40 113 90 253 111 313 l38
107 317 0 c244 0 318 -3 322 -12z m2237 -71 l0 -83 -58 -80 c-32 -43 -119
-162 -194 -264 -74 -102 -209 -287 -301 -413 -92 -125 -167 -230 -167 -232 0
-3 70 -5 155 -5 l155 0 0 145 0 145 205 0 205 0 0 -335 0 -335 -795 0 -795 0
0 133 1 132 147 171 c236 274 565 654 594 688 15 17 27 34 28 39 0 4 -85 7
-190 7 l-190 0 0 -145 0 -145 -195 0 -195 0 0 330 0 330 795 0 795 0 0 -83z
m1738 3 l3 -75 -79 -110 c-43 -61 -205 -287 -360 -502 l-281 -393 159 0 160 0
0 145 0 145 198 -2 197 -3 0 -330 0 -330 -787 -3 -788 -2 0 132 1 133 384 448
c212 246 385 449 385 452 0 3 -85 5 -190 5 l-190 0 0 -145 0 -145 -195 0 -195
0 0 330 0 330 788 -2 787 -3 3 -75z m-6445 56 c50 -18 76 -42 98 -91 39 -85 9
-190 -66 -232 -37 -21 -53 -23 -197 -23 l-158 0 0 40 c0 36 3 40 25 40 25 0
25 1 25 85 0 47 0 88 1 93 0 4 -10 9 -23 12 -23 6 -36 45 -24 76 7 19 264 19
319 0z m637 7 c0 -14 -45 -138 -52 -143 -3 -3 -26 -5 -50 -4 -32 0 -42 4 -39
15 2 8 6 22 8 32 5 15 -2 17 -50 17 -43 0 -56 -4 -60 -17 -2 -10 -8 -26 -12
-35 -5 -14 -2 -18 14 -18 24 0 25 -1 9 -35 -11 -25 -13 -27 -48 -29 -18 -1
-49 -31 -50 -48 0 -5 27 -8 59 -8 59 0 60 0 72 35 12 33 15 35 61 35 26 0 48
-2 48 -4 0 -2 -14 -41 -31 -85 l-31 -81 -190 0 -189 0 6 23 c12 39 35 67 55
67 15 0 31 22 64 89 25 49 42 91 39 95 -4 3 -19 6 -35 6 -15 0 -28 4 -28 9 0
12 27 74 36 84 4 4 94 7 201 7 106 0 193 -3 193 -7z"/>
<path d="M3152 5041 c-32 -15 -47 -31 -62 -63 -18 -40 -20 -67 -20 -348 0
-297 1 -306 23 -344 55 -96 180 -98 237 -3 19 30 20 52 20 352 0 300 -1 322
-20 352 -40 66 -108 86 -178 54z"/>
<path d="M1385 5029 c-4 -6 -4 -179 0 -385 l7 -374 97 0 c107 0 129 9 159 63
15 28 17 68 20 297 4 289 -1 326 -46 358 -48 35 -223 65 -237 41z"/>
<path d="M6387 4757 c-20 -62 -37 -116 -37 -120 0 -4 36 -7 80 -7 44 0 80 4
80 9 0 14 -71 215 -79 223 -4 4 -23 -43 -44 -105z"/>
<path d="M2928 2968 l-36 -113 39 -3 c21 -2 58 -2 82 0 l43 3 -40 113 c-22 61
-43 112 -46 112 -4 0 -23 -51 -42 -112z"/>
<path d="M806 3552 c-3 -6 -3 -51 1 -101 6 -87 7 -91 30 -91 24 0 24 1 21 98
-3 91 -4 97 -25 100 -11 2 -24 -1 -27 -6z"/>
</g>
</svg>
